<mxfile host="app.diagrams.net" modified="2023-05-31T13:34:39.288Z" agent="Mozilla/5.0 (Macintosh; Intel Mac OS X 10.15; rv:109.0) Gecko/20100101 Firefox/113.0" version="21.3.6" etag="4vt8mJwcBJmcZ9rm_2cz" type="github">
  <diagram name="Page-1" id="DVzhSFckID4SJNYEZx_0">
    <mxGraphModel>
      <root>
        <mxCell id="0" />
        <mxCell id="1" parent="0" />
      </root>
    </mxGraphModel>
  </diagram>
</mxfile>
